<?xml version="1.0" standalone="no"?>
<!DOCTYPE svg PUBLIC "-//W3C//DTD SVG 20010904//EN"
 "http://www.w3.org/TR/2001/REC-SVG-20010904/DTD/svg10.dtd">
<svg version="1.0" xmlns="http://www.w3.org/2000/svg"
 width="300.000000pt" height="300.000000pt" viewBox="0 0 300.000000 300.000000"
 preserveAspectRatio="xMidYMid meet">
<metadata>
Created by potrace 1.14, written by Peter Selinger 2001-2017
</metadata>
<g transform="translate(0.000000,300.000000) scale(0.100000,-0.100000)"
fill="#000000" stroke="none">
<path d="M1410 2828 c-19 -5 -47 -19 -62 -30 -15 -10 -28 -17 -28 -14 0 3 -9
-2 -19 -11 -25 -23 -38 -33 -81 -63 -19 -13 -37 -27 -40 -30 -3 -3 -23 -18
-45 -35 -22 -16 -43 -33 -46 -38 -3 -5 -8 -7 -10 -6 -2 2 -15 -7 -29 -19 -14
-11 -29 -21 -34 -21 -5 0 -12 -4 -15 -9 -9 -15 -100 -82 -110 -82 -5 0 -11 -3
-13 -8 -2 -4 -23 -23 -48 -42 -25 -18 -53 -42 -63 -52 -10 -10 -23 -15 -29
-12 -7 4 -8 2 -4 -4 4 -7 1 -12 -8 -12 -9 0 -16 -4 -16 -10 0 -5 -6 -10 -14
-10 -8 0 -17 -7 -20 -16 -4 -9 -9 -14 -12 -11 -3 3 -16 -5 -29 -19 -12 -13
-27 -24 -34 -24 -6 0 -11 -7 -11 -17 0 -9 -3 -14 -6 -10 -3 3 -35 -17 -70 -44
-35 -27 -64 -47 -64 -44 0 2 -20 -14 -44 -38 -45 -43 -80 -100 -69 -111 4 -3
2 -6 -4 -6 -5 0 -8 -16 -7 -35 2 -26 0 -34 -9 -28 -9 5 -9 3 -1 -8 12 -16 13
-297 1 -316 -4 -6 -4 -14 1 -17 4 -2 7 -41 7 -85 -1 -55 2 -78 9 -74 8 5 8 3
0 -8 -6 -8 -10 -38 -10 -66 1 -29 -3 -53 -7 -53 -5 0 -5 -5 -1 -12 12 -19 11
-148 -1 -148 -7 0 -7 -3 0 -8 6 -4 11 -27 12 -52 2 -67 28 -116 90 -176 31
-30 60 -54 64 -54 4 0 14 -6 21 -13 7 -7 42 -33 78 -57 72 -50 75 -52 109 -80
13 -11 30 -20 38 -20 8 0 12 -4 9 -8 -3 -5 7 -15 22 -23 15 -8 38 -24 52 -36
14 -13 28 -23 33 -23 4 0 13 -4 20 -10 67 -54 127 -94 127 -83 0 4 7 -3 16
-15 8 -12 22 -22 30 -22 8 0 14 -4 14 -10 0 -5 7 -10 15 -10 7 0 19 -8 24 -17
6 -10 11 -13 11 -8 0 6 3 6 8 -1 4 -6 30 -26 57 -44 28 -19 56 -40 63 -47 7
-7 19 -13 27 -13 7 0 15 -7 19 -15 3 -8 12 -15 21 -15 8 0 15 -5 15 -12 0 -6
3 -9 6 -5 4 3 12 1 20 -6 33 -29 44 -37 54 -37 5 0 10 -4 10 -10 0 -5 6 -10
14 -10 8 0 16 -5 18 -10 5 -16 90 -25 151 -15 66 10 58 6 102 43 8 7 15 10 15
7 0 -3 10 4 23 15 12 12 34 29 50 38 15 9 27 20 27 24 0 4 5 8 11 8 6 0 25 11
43 25 l32 25 25 -50 c13 -27 27 -50 32 -50 4 0 7 -6 7 -14 0 -7 7 -19 15 -26
8 -7 13 -16 10 -20 -6 -10 37 -28 60 -24 11 2 30 5 43 6 12 1 22 7 22 12 0 5
3 6 6 3 4 -3 16 -1 28 5 11 7 24 11 29 10 4 -1 7 2 7 8 0 6 3 9 8 8 13 -2 82
32 82 42 0 5 7 6 17 3 11 -4 14 -3 9 5 -4 7 -2 12 3 12 12 0 22 8 89 70 24 22
40 40 36 40 -4 0 0 8 8 18 8 9 14 22 13 27 -3 20 -30 70 -45 82 -8 7 -11 13
-7 13 5 0 1 7 -7 16 -9 8 -14 19 -12 23 3 4 -3 13 -14 21 -10 7 -16 19 -13 27
3 7 -1 13 -8 13 -7 0 -10 3 -6 6 3 4 -1 13 -9 21 -17 17 -13 23 58 75 20 15
42 33 50 40 7 7 36 29 63 48 111 77 175 145 175 185 0 9 4 14 9 11 4 -3 8 15
7 40 -1 25 1 47 4 49 7 4 4 714 -3 721 -3 4 -3 14 1 23 12 26 2 133 -17 179
-7 16 -21 35 -33 43 -11 8 -34 26 -50 42 -26 24 -42 31 -50 25 -2 -1 -16 12
-33 28 -16 16 -43 38 -59 49 -15 11 -33 25 -40 31 -6 5 -19 13 -28 17 -10 3
-18 11 -18 17 0 5 -4 10 -10 10 -8 0 -114 75 -162 115 -9 7 -19 11 -21 8 -3
-2 -8 5 -12 16 -3 12 -13 21 -21 21 -8 0 -14 5 -14 10 0 6 -6 10 -14 10 -8 0
-17 7 -20 16 -3 8 -10 13 -15 10 -4 -3 -16 3 -26 14 -10 11 -24 20 -32 20 -8
0 -11 5 -8 10 3 6 1 10 -6 10 -6 0 -42 23 -80 50 -38 28 -71 50 -74 50 -5 0
-36 25 -60 48 -8 6 -18 12 -24 12 -6 0 -11 5 -11 10 0 6 -6 10 -14 10 -8 0
-16 3 -18 8 -5 11 -66 52 -78 52 -5 0 -10 4 -10 9 0 26 -145 46 -210 29z"/>
</g>
</svg>
